<?xml version="1.0" encoding="UTF-8"?>
<!DOCTYPE svg PUBLIC "-//W3C//DTD SVG 1.1//EN" "http://www.w3.org/Graphics/SVG/1.1/DTD/svg11.dtd">
<!-- Creator: CorelDRAW X7 -->
<svg xmlns="http://www.w3.org/2000/svg" xml:space="preserve" width="1181px" height="1181px" version="1.1" style="shape-rendering:geometricPrecision; text-rendering:geometricPrecision; image-rendering:optimizeQuality; fill-rule:evenodd; clip-rule:evenodd"
viewBox="0 0 1181 1181"
 xmlns:xlink="http://www.w3.org/1999/xlink">
 <defs>
  <style type="text/css">
   <![CDATA[
    .fil0 {fill:#1A1A1A}
    .fil1 {fill:white}
   ]]>
  </style>
 </defs>
 <g id="Layer_x0020_1">
  <metadata id="CorelCorpID_0Corel-Layer"/>
  <rect class="fil0" width="1181" height="1181" rx="334" ry="591"/>
  <path class="fil1" d="M952 959l-723 0 0 -172 37 0c18,13 40,21 63,21 58,0 104,-47 104,-105 0,-57 -46,-104 -104,-104 -25,0 -48,9 -66,24l-34 0 0 -194 259 0 0 -40c-13,-17 -21,-39 -21,-62 0,-58 47,-105 105,-105 57,0 104,47 104,105 0,25 -9,48 -24,66l0 36 300 0 0 530z"/>
 </g>
</svg>
